<?xml version="1.0" encoding="iso-8859-1"?>
<!-- Generator: Adobe Illustrator 18.0.0, SVG Export Plug-In . SVG Version: 6.00 Build 0)  -->
<!DOCTYPE svg PUBLIC "-//W3C//DTD SVG 1.1//EN" "http://www.w3.org/Graphics/SVG/1.1/DTD/svg11.dtd">
<svg version="1.1" id="Capa_1" xmlns="http://www.w3.org/2000/svg" xmlns:xlink="http://www.w3.org/1999/xlink" x="0px" y="0px"
	 viewBox="0 0 172.874 172.874" style="enable-background:new 0 0 172.874 172.874;" xml:space="preserve">
<g>
	<path style="fill:#1D1D1B;" d="M100.806,81.731c0-8.415-6.822-15.237-15.237-15.237c-8.415,0-15.237,6.822-15.237,15.237
		c0,5.667,3.101,10.602,7.692,13.227l0.122,51.174c0.01,4.136,3.366,7.482,7.5,7.482c0.006,0,0.012,0,0.018,0
		c4.143-0.01,7.492-3.376,7.482-7.518l-0.122-51.083C97.665,92.401,100.806,87.436,100.806,81.731z"/>
	<path style="fill:#1D1D1B;" d="M30.421,30.496L20.077,19.261c-28.291,37.061-26.359,88.93,3.752,123.863l10.225-11.106
		C10.165,103.108,8.449,61.261,30.421,30.496z"/>
	<path style="fill:#1D1D1B;" d="M45.2,46.549L34.711,35.156c-19.371,28.138-17.718,65.87,3.585,92.254l10.29-11.177
		C33.411,95.99,31.993,68.224,45.2,46.549z"/>
	<path style="fill:#1D1D1B;" d="M42,79.171c0,11.66,4.081,22.926,11.369,31.867l10.302-11.19C59.376,93.87,57,86.634,57,79.171
		c0-5.53,1.288-10.919,3.708-15.778L50.067,51.834C44.832,59.933,42,69.396,42,79.171z"/>
	<path style="fill:#1D1D1B;" d="M138.821,132.018l10.225,11.106c30.111-34.933,32.043-86.802,3.752-123.863l-10.344,11.236
		C164.425,61.261,162.71,103.108,138.821,132.018z"/>
	<path style="fill:#1D1D1B;" d="M138.163,35.156l-10.489,11.393c13.207,21.676,11.789,49.441-3.386,69.685l10.29,11.177
		C155.881,101.026,157.535,63.294,138.163,35.156z"/>
	<path style="fill:#1D1D1B;" d="M130.875,79.171c0-9.775-2.833-19.238-8.067-27.337l-10.642,11.559
		c2.42,4.859,3.708,10.248,3.708,15.778c0,7.463-2.376,14.699-6.671,20.677l10.302,11.19
		C126.794,102.097,130.875,90.831,130.875,79.171z"/>
</g>
<g>
</g>
<g>
</g>
<g>
</g>
<g>
</g>
<g>
</g>
<g>
</g>
<g>
</g>
<g>
</g>
<g>
</g>
<g>
</g>
<g>
</g>
<g>
</g>
<g>
</g>
<g>
</g>
<g>
</g>
</svg>
